<svg viewBox="0 0 123 158" fill="none" xmlns="http://www.w3.org/2000/svg">
<rect fill="white"/>
<path d="M107.625 19.75H90.3666C86.132 8.27031 74.857 0 61.5 0C48.143 0 36.868 8.27031 32.6398 19.75H15.375C6.88672 19.75 0 26.3786 0 34.5625V143.188C0 151.365 6.88672 158 15.375 158H107.625C116.113 158 123 151.371 123 143.188V34.5625C123 26.3786 116.113 19.75 107.625 19.75ZM30.75 120.969C26.5059 120.969 23.0625 117.651 23.0625 113.562C23.0625 109.474 26.5059 106.156 30.75 106.156C34.9941 106.156 38.4375 109.474 38.4375 113.562C38.4375 117.651 35.0102 120.969 30.75 120.969ZM30.75 91.3438C26.5059 91.3438 23.0625 88.0264 23.0625 83.9375C23.0625 79.8486 26.5059 76.5312 30.75 76.5312C34.9941 76.5312 38.4375 79.8641 38.4375 83.9375C38.4375 88.0109 35.0102 91.3438 30.75 91.3438ZM61.5 19.75C67.1599 19.75 71.75 24.1721 71.75 29.625C71.75 35.0779 67.1599 39.5 61.5 39.5C55.8401 39.5 51.25 35.0871 51.25 29.625C51.25 24.1721 55.8305 19.75 61.5 19.75ZM97.375 118.5H56.375C53.5563 118.5 51.25 116.278 51.25 113.562C51.25 110.847 53.5563 108.625 56.375 108.625H97.375C100.194 108.625 102.5 110.847 102.5 113.562C102.5 116.278 100.194 118.5 97.375 118.5ZM97.375 88.875H56.375C53.5563 88.875 51.25 86.6531 51.25 83.9375C51.25 81.2219 53.5563 79 56.375 79H97.375C100.194 79 102.5 81.2219 102.5 83.9375C102.5 86.6531 100.194 88.875 97.375 88.875Z" fill="#74ABDD"/>
</svg>
