<svg viewBox="0 0 166 152" fill="none" xmlns="http://www.w3.org/2000/svg">
<g clip-path="url(#clip0_7_21)">
<rect width="166" height="152"/>
<path d="M164.152 123.797L94.9963 15.7344C89.7018 7.42188 76.3407 7.42188 71.0106 15.7344L1.88713 123.797C-3.4333 132.08 3.19341 142.5 13.8573 142.5H152.169C162.79 142.5 169.437 132.109 164.152 123.797ZM75.2189 49.875C75.2189 45.9414 78.7043 42.75 83.0002 42.75C87.2961 42.75 90.7814 45.9562 90.7814 49.875V87.875C90.7814 91.8086 87.2961 95 83.292 95C79.2879 95 75.2189 91.8234 75.2189 87.875V49.875ZM83.0002 123.5C77.3717 123.5 72.8067 119.32 72.8067 114.166C72.8067 109.012 77.3685 104.832 83.0002 104.832C88.6319 104.832 93.1936 109.012 93.1936 114.166C93.1807 119.314 88.6416 123.5 83.0002 123.5Z" fill="#C62D2D"/>
</g>
<defs>
<clipPath id="clip0_7_21">
<rect width="166" height="152"/>
</clipPath>
</defs>
</svg>
